<svg width="4443" height="2534" viewBox="0 0 4443 2534" fill="none" xmlns="http://www.w3.org/2000/svg">
<rect width="4443" height="2534" rx="10" fill="#EFE0E0"/>
<rect x="948" y="630" width="633" height="1344" rx="68" fill="#B47373"/>
<rect x="1200" y="1120" width="1197" height="854" rx="131" fill="#656565"/>
<rect x="1526" y="819" width="586" height="301" fill="#535353"/>
<rect x="2540" y="329" width="474" height="301" fill="#535353"/>
<rect x="1142" y="329" width="236" height="301" fill="#535353"/>
<rect x="2180" y="630" width="1197" height="1344" rx="68" fill="#CECBCB"/>
<path d="M1220.78 1645H1178.59L1096.47 1510.28V1645H1054.28V1440.25H1096.47L1178.73 1575.25V1440.25H1220.78V1645ZM1244.3 1567.52C1244.3 1552.42 1247.21 1538.97 1253.02 1527.16C1258.84 1515.34 1267.18 1506.2 1278.05 1499.73C1289.02 1493.27 1301.73 1490.03 1316.16 1490.03C1336.7 1490.03 1353.43 1496.31 1366.37 1508.88C1379.4 1521.44 1386.66 1538.5 1388.16 1560.06L1388.45 1570.47C1388.45 1593.81 1381.93 1612.56 1368.9 1626.72C1355.87 1640.78 1338.38 1647.81 1316.45 1647.81C1294.51 1647.81 1276.98 1640.78 1263.85 1626.72C1250.82 1612.66 1244.3 1593.53 1244.3 1569.34V1567.52ZM1284.95 1570.47C1284.95 1584.91 1287.66 1595.97 1293.1 1603.66C1298.54 1611.25 1306.32 1615.05 1316.45 1615.05C1326.29 1615.05 1333.98 1611.3 1339.51 1603.8C1345.04 1596.2 1347.8 1584.11 1347.8 1567.52C1347.8 1553.36 1345.04 1542.39 1339.51 1534.61C1333.98 1526.83 1326.2 1522.94 1316.16 1522.94C1306.23 1522.94 1298.54 1526.83 1293.1 1534.61C1287.66 1542.3 1284.95 1554.25 1284.95 1570.47ZM1524.09 1645H1481.9V1440.25H1524.09V1645ZM1594.44 1492.84L1595.7 1509.86C1606.49 1496.64 1621.06 1490.03 1639.44 1490.03C1659.03 1490.03 1672.49 1497.77 1679.8 1513.23C1690.49 1497.77 1705.72 1490.03 1725.5 1490.03C1742 1490.03 1754.28 1494.86 1762.35 1504.52C1770.41 1514.08 1774.44 1528.52 1774.44 1547.83V1645H1733.66V1547.97C1733.66 1539.34 1731.97 1533.06 1728.6 1529.12C1725.22 1525.09 1719.27 1523.08 1710.74 1523.08C1698.55 1523.08 1690.11 1528.89 1685.42 1540.52L1685.56 1645H1644.92V1548.11C1644.92 1539.3 1643.19 1532.92 1639.72 1528.98C1636.25 1525.05 1630.35 1523.08 1622 1523.08C1610.47 1523.08 1602.13 1527.86 1596.97 1537.42V1645H1556.33V1492.84H1594.44ZM1889.65 1645C1887.78 1641.34 1886.42 1636.8 1885.57 1631.36C1875.73 1642.33 1862.93 1647.81 1847.18 1647.81C1832.28 1647.81 1819.9 1643.5 1810.06 1634.88C1800.31 1626.25 1795.43 1615.38 1795.43 1602.25C1795.43 1586.12 1801.38 1573.75 1813.29 1565.12C1825.29 1556.5 1842.59 1552.14 1865.18 1552.05H1883.88V1543.33C1883.88 1536.3 1882.06 1530.67 1878.4 1526.45C1874.84 1522.23 1869.17 1520.12 1861.38 1520.12C1854.54 1520.12 1849.15 1521.77 1845.21 1525.05C1841.37 1528.33 1839.45 1532.83 1839.45 1538.55H1798.81C1798.81 1529.73 1801.53 1521.58 1806.96 1514.08C1812.4 1506.58 1820.09 1500.72 1830.03 1496.5C1839.96 1492.19 1851.12 1490.03 1863.49 1490.03C1882.24 1490.03 1897.1 1494.77 1908.07 1504.23C1919.13 1513.61 1924.67 1526.83 1924.67 1543.89V1609.84C1924.76 1624.28 1926.78 1635.2 1930.71 1642.61V1645H1889.65ZM1856.04 1616.73C1862.04 1616.73 1867.57 1615.42 1872.63 1612.8C1877.7 1610.08 1881.45 1606.47 1883.88 1601.97V1575.81H1868.7C1848.35 1575.81 1837.53 1582.84 1836.21 1596.91L1836.07 1599.3C1836.07 1604.36 1837.85 1608.53 1841.42 1611.81C1844.98 1615.09 1849.85 1616.73 1856.04 1616.73ZM1945.66 1567.8C1945.66 1544.45 1951.19 1525.66 1962.25 1511.41C1973.41 1497.16 1988.41 1490.03 2007.25 1490.03C2023.94 1490.03 2036.92 1495.75 2046.21 1507.19L2047.89 1492.84H2084.74V1639.94C2084.74 1653.25 2081.69 1664.83 2075.6 1674.67C2069.6 1684.52 2061.11 1692.02 2050.14 1697.17C2039.17 1702.33 2026.33 1704.91 2011.61 1704.91C2000.46 1704.91 1989.58 1702.66 1978.99 1698.16C1968.39 1693.75 1960.38 1688.03 1954.94 1681L1972.94 1656.25C1983.06 1667.59 1995.35 1673.27 2009.78 1673.27C2020.56 1673.27 2028.96 1670.36 2034.96 1664.55C2040.96 1658.83 2043.96 1650.67 2043.96 1640.08V1631.92C2034.58 1642.52 2022.25 1647.81 2006.97 1647.81C1988.69 1647.81 1973.88 1640.69 1962.53 1626.44C1951.28 1612.09 1945.66 1593.11 1945.66 1569.48V1567.8ZM1986.3 1570.75C1986.3 1584.53 1989.06 1595.36 1994.6 1603.23C2000.13 1611.02 2007.72 1614.91 2017.38 1614.91C2029.75 1614.91 2038.61 1610.27 2043.96 1600.98V1537C2038.52 1527.72 2029.75 1523.08 2017.66 1523.08C2007.91 1523.08 2000.22 1527.06 1994.6 1535.03C1989.06 1543 1986.3 1554.91 1986.3 1570.75ZM2181.81 1647.81C2159.49 1647.81 2141.31 1640.97 2127.24 1627.28C2113.28 1613.59 2106.29 1595.36 2106.29 1572.58V1568.64C2106.29 1553.36 2109.24 1539.72 2115.15 1527.72C2121.06 1515.62 2129.4 1506.34 2140.18 1499.88C2151.06 1493.31 2163.43 1490.03 2177.31 1490.03C2198.12 1490.03 2214.48 1496.59 2226.39 1509.72C2238.39 1522.84 2244.39 1541.45 2244.39 1565.55V1582.14H2147.49C2148.81 1592.08 2152.74 1600.05 2159.31 1606.05C2165.96 1612.05 2174.35 1615.05 2184.48 1615.05C2200.14 1615.05 2212.37 1609.38 2221.18 1598.03L2241.15 1620.39C2235.06 1629.02 2226.81 1635.77 2216.4 1640.64C2205.99 1645.42 2194.46 1647.81 2181.81 1647.81ZM2177.17 1522.94C2169.1 1522.94 2162.54 1525.66 2157.48 1531.09C2152.51 1536.53 2149.32 1544.31 2147.92 1554.44H2204.45V1551.2C2204.26 1542.2 2201.82 1535.27 2197.14 1530.39C2192.45 1525.42 2185.79 1522.94 2177.17 1522.94ZM2418.84 1645C2416.96 1641.34 2415.6 1636.8 2414.76 1631.36C2404.92 1642.33 2392.12 1647.81 2376.37 1647.81C2361.46 1647.81 2349.09 1643.5 2339.24 1634.88C2329.49 1626.25 2324.62 1615.38 2324.62 1602.25C2324.62 1586.12 2330.57 1573.75 2342.48 1565.12C2354.48 1556.5 2371.78 1552.14 2394.37 1552.05H2413.07V1543.33C2413.07 1536.3 2411.24 1530.67 2407.59 1526.45C2404.03 1522.23 2398.35 1520.12 2390.57 1520.12C2383.73 1520.12 2378.34 1521.77 2374.4 1525.05C2370.56 1528.33 2368.64 1532.83 2368.64 1538.55H2327.99C2327.99 1529.73 2330.71 1521.58 2336.15 1514.08C2341.59 1506.58 2349.28 1500.72 2359.21 1496.5C2369.15 1492.19 2380.31 1490.03 2392.68 1490.03C2411.43 1490.03 2426.29 1494.77 2437.26 1504.23C2448.32 1513.61 2453.85 1526.83 2453.85 1543.89V1609.84C2453.95 1624.28 2455.96 1635.2 2459.9 1642.61V1645H2418.84ZM2385.23 1616.73C2391.23 1616.73 2396.76 1615.42 2401.82 1612.8C2406.89 1610.08 2410.64 1606.47 2413.07 1601.97V1575.81H2397.89C2377.54 1575.81 2366.71 1582.84 2365.4 1596.91L2365.26 1599.3C2365.26 1604.36 2367.04 1608.53 2370.6 1611.81C2374.17 1615.09 2379.04 1616.73 2385.23 1616.73ZM2535.46 1595.36L2563.72 1492.84H2606.19L2554.86 1645H2516.05L2464.72 1492.84H2507.19L2535.46 1595.36ZM2705.79 1645C2703.92 1641.34 2702.56 1636.8 2701.71 1631.36C2691.87 1642.33 2679.07 1647.81 2663.32 1647.81C2648.42 1647.81 2636.04 1643.5 2626.2 1634.88C2616.45 1626.25 2611.57 1615.38 2611.57 1602.25C2611.57 1586.12 2617.53 1573.75 2629.43 1565.12C2641.43 1556.5 2658.73 1552.14 2681.32 1552.05H2700.03V1543.33C2700.03 1536.3 2698.2 1530.67 2694.54 1526.45C2690.98 1522.23 2685.31 1520.12 2677.53 1520.12C2670.68 1520.12 2665.29 1521.77 2661.35 1525.05C2657.51 1528.33 2655.59 1532.83 2655.59 1538.55H2614.95C2614.95 1529.73 2617.67 1521.58 2623.1 1514.08C2628.54 1506.58 2636.23 1500.72 2646.17 1496.5C2656.1 1492.19 2667.26 1490.03 2679.64 1490.03C2698.39 1490.03 2713.25 1494.77 2724.21 1504.23C2735.28 1513.61 2740.81 1526.83 2740.81 1543.89V1609.84C2740.9 1624.28 2742.92 1635.2 2746.85 1642.61V1645H2705.79ZM2672.18 1616.73C2678.18 1616.73 2683.71 1615.42 2688.78 1612.8C2693.84 1610.08 2697.59 1606.47 2700.03 1601.97V1575.81H2684.84C2664.5 1575.81 2653.67 1582.84 2652.35 1596.91L2652.21 1599.3C2652.21 1604.36 2654 1608.53 2657.56 1611.81C2661.12 1615.09 2666 1616.73 2672.18 1616.73ZM2810.6 1645H2769.82V1492.84H2810.6V1645ZM2767.43 1453.47C2767.43 1447.38 2769.44 1442.36 2773.47 1438.42C2777.6 1434.48 2783.18 1432.52 2790.21 1432.52C2797.14 1432.52 2802.68 1434.48 2806.8 1438.42C2810.93 1442.36 2812.99 1447.38 2812.99 1453.47C2812.99 1459.66 2810.88 1464.72 2806.66 1468.66C2802.54 1472.59 2797.05 1474.56 2790.21 1474.56C2783.36 1474.56 2777.83 1472.59 2773.61 1468.66C2769.49 1464.72 2767.43 1459.66 2767.43 1453.47ZM2882.78 1645H2842V1429H2882.78V1645ZM3000.24 1645C2998.36 1641.34 2997 1636.8 2996.16 1631.36C2986.32 1642.33 2973.52 1647.81 2957.77 1647.81C2942.86 1647.81 2930.49 1643.5 2920.65 1634.88C2910.9 1626.25 2906.02 1615.38 2906.02 1602.25C2906.02 1586.12 2911.97 1573.75 2923.88 1565.12C2935.88 1556.5 2953.18 1552.14 2975.77 1552.05H2994.47V1543.33C2994.47 1536.3 2992.65 1530.67 2988.99 1526.45C2985.43 1522.23 2979.75 1520.12 2971.97 1520.12C2965.13 1520.12 2959.74 1521.77 2955.8 1525.05C2951.96 1528.33 2950.04 1532.83 2950.04 1538.55H2909.4C2909.4 1529.73 2912.11 1521.58 2917.55 1514.08C2922.99 1506.58 2930.68 1500.72 2940.61 1496.5C2950.55 1492.19 2961.71 1490.03 2974.08 1490.03C2992.83 1490.03 3007.69 1494.77 3018.66 1504.23C3029.72 1513.61 3035.25 1526.83 3035.25 1543.89V1609.84C3035.35 1624.28 3037.36 1635.2 3041.3 1642.61V1645H3000.24ZM2966.63 1616.73C2972.63 1616.73 2978.16 1615.42 2983.22 1612.8C2988.29 1610.08 2992.04 1606.47 2994.47 1601.97V1575.81H2979.29C2958.94 1575.81 2948.11 1582.84 2946.8 1596.91L2946.66 1599.3C2946.66 1604.36 2948.44 1608.53 2952 1611.81C2955.57 1615.09 2960.44 1616.73 2966.63 1616.73ZM3199.26 1570.33C3199.26 1594.7 3194.06 1613.73 3183.65 1627.42C3173.25 1641.02 3158.72 1647.81 3140.06 1647.81C3123.56 1647.81 3110.39 1641.48 3100.54 1628.83L3098.72 1645H3062.15V1429H3102.79V1506.48C3112.17 1495.52 3124.5 1490.03 3139.78 1490.03C3158.34 1490.03 3172.87 1496.88 3183.37 1510.56C3193.97 1524.16 3199.26 1543.33 3199.26 1568.08V1570.33ZM3158.62 1567.38C3158.62 1552 3156.18 1540.8 3151.31 1533.77C3146.43 1526.64 3139.17 1523.08 3129.51 1523.08C3116.57 1523.08 3107.67 1528.38 3102.79 1538.97V1599.02C3107.76 1609.7 3116.76 1615.05 3129.79 1615.05C3142.92 1615.05 3151.54 1608.58 3155.67 1595.64C3157.64 1589.45 3158.62 1580.03 3158.62 1567.38ZM3263 1645H3222.22V1429H3263V1645ZM3362.33 1647.81C3340.01 1647.81 3321.83 1640.97 3307.76 1627.28C3293.79 1613.59 3286.81 1595.36 3286.81 1572.58V1568.64C3286.81 1553.36 3289.76 1539.72 3295.67 1527.72C3301.58 1515.62 3309.92 1506.34 3320.7 1499.88C3331.58 1493.31 3343.95 1490.03 3357.83 1490.03C3378.64 1490.03 3395 1496.59 3406.9 1509.72C3418.9 1522.84 3424.9 1541.45 3424.9 1565.55V1582.14H3328.01C3329.33 1592.08 3333.26 1600.05 3339.83 1606.05C3346.48 1612.05 3354.87 1615.05 3365 1615.05C3380.65 1615.05 3392.89 1609.38 3401.7 1598.03L3421.67 1620.39C3415.58 1629.02 3407.33 1635.77 3396.92 1640.64C3386.51 1645.42 3374.98 1647.81 3362.33 1647.81ZM3357.69 1522.94C3349.62 1522.94 3343.06 1525.66 3338 1531.09C3333.03 1536.53 3329.84 1544.31 3328.44 1554.44H3384.97V1551.2C3384.78 1542.2 3382.34 1535.27 3377.65 1530.39C3372.97 1525.42 3366.31 1522.94 3357.69 1522.94Z" fill="black"/>
</svg>
